<?xml version="1.0" standalone="no"?>
<svg xmlns:xlink="http://www.w3.org/1999/xlink" id="wave" style="transform:rotate(0deg); transition: 0.3s" viewBox="0 0 1440 380" version="1.1" xmlns="http://www.w3.org/2000/svg"><defs><linearGradient id="sw-gradient-0" x1="0" x2="0" y1="1" y2="0"><stop stop-color="rgba(243, 106, 62, 1)" offset="0%"/><stop stop-color="rgba(255, 179, 11, 1)" offset="100%"/></linearGradient></defs><path style="transform:translate(0, 0px); opacity:1" fill="url(#sw-gradient-0)" d="M0,114L80,145.7C160,177,320,241,480,278.7C640,317,800,329,960,285C1120,241,1280,139,1440,107.7C1600,76,1760,114,1920,164.7C2080,215,2240,279,2400,285C2560,291,2720,241,2880,183.7C3040,127,3200,63,3360,88.7C3520,114,3680,228,3840,285C4000,342,4160,342,4320,285C4480,228,4640,114,4800,69.7C4960,25,5120,51,5280,69.7C5440,89,5600,101,5760,101.3C5920,101,6080,89,6240,120.3C6400,152,6560,228,6720,247C6880,266,7040,228,7200,221.7C7360,215,7520,241,7680,240.7C7840,241,8000,215,8160,190C8320,165,8480,139,8640,145.7C8800,152,8960,190,9120,202.7C9280,215,9440,203,9600,202.7C9760,203,9920,215,10080,183.7C10240,152,10400,76,10560,38C10720,0,10880,0,11040,50.7C11200,101,11360,203,11440,253.3L11520,304L11520,380L11440,380C11360,380,11200,380,11040,380C10880,380,10720,380,10560,380C10400,380,10240,380,10080,380C9920,380,9760,380,9600,380C9440,380,9280,380,9120,380C8960,380,8800,380,8640,380C8480,380,8320,380,8160,380C8000,380,7840,380,7680,380C7520,380,7360,380,7200,380C7040,380,6880,380,6720,380C6560,380,6400,380,6240,380C6080,380,5920,380,5760,380C5600,380,5440,380,5280,380C5120,380,4960,380,4800,380C4640,380,4480,380,4320,380C4160,380,4000,380,3840,380C3680,380,3520,380,3360,380C3200,380,3040,380,2880,380C2720,380,2560,380,2400,380C2240,380,2080,380,1920,380C1760,380,1600,380,1440,380C1280,380,1120,380,960,380C800,380,640,380,480,380C320,380,160,380,80,380L0,380Z"/></svg>