<svg xmlns="http://www.w3.org/2000/svg" viewBox="0 0 180.74 182.81"><path fill="#ffffff" d="M74.01 178.76c-.39-2.53 1.51-4.93 4.01-5.28 4.25-.84 8.54-1.4 12.84-1.93 23.11-3.63 46.69-2.76 69.74-6.4-5.43-17.6-5.38-36.08-3.9-54.27 1.2-17.53 3.59-35 8.06-52.01-9.46 15.33-17.53 31.47-26.47 47.1-2.66 4.73-5.42 9.53-9.22 13.45-3.54 3.93-10.18 5.18-14.09 1.1-2.26-2.4-3.34-5.65-4.32-8.72-2.83-8.76-5.13-17.68-7.06-26.67-3.57-15.93-5.86-32.09-8.9-48.12-1.61 20.14-5.24 40.04-10 59.67-1.74 7.38-3.37 14.81-5.78 22.01-1.27 3.59-2.51 7.6-5.56 10.11-6.47 5.22-13.06.1-17.12-5.4-2.92-3.3-5.89-6.55-8.87-9.8-6.41-7.13-13.21-13.89-19.78-20.86 9.26 21.08 16.68 43.97 14.14 67.26-.65 5.7-2.36 19.23-7.14 22.46-2.83.9-3.02-2.8-2.98-4.72-.2-4.91-.39-10.23-.71-14.97-.65-13.99-3.37-27.72-7.34-41.13-5.16-18.22-11.3-36.43-21.44-52.53-2.43-3.28-3.36-8.34.31-11.12 3.8-2.93 8.62-.69 12.07 1.71 8.19 5.53 14.63 13.16 21.38 20.28 10.77 10.94 21.32 22.12 30.86 34.17C77.32 78.4 83.82 41.91 86.38 4.91c.53-3.9 5.07-6.28 8.47-4.08 7.73 6.16 13.35 34.88 16.08 45.3 4.09 18.53 9.3 36.78 13.88 55.19 14.14-19.66 24.42-41.96 40.32-60.42 1.69-1.92 3.22-4.06 5.3-5.59 4.68-3.32 9.82.61 10.09 5.83.77 7.76-.91 15.5-2.34 23.1-1.61 8.31-2.91 16.7-3.38 25.17-.98 18.75-2.73 37.55-1.7 56.34.31 4.15.91 8.28 1.72 12.36 1.09 4.56 2.77 9.64.02 13.95-4.18 6.9-14.47 6.06-21.15 6.66-11.93.88-23.9 1.5-35.81 2.22-9.67.57-20.17.37-29.55 1.02-3.02.21-6.05.43-9.06.8-.19.02-.38.04-.58.04-2.28 0-4.4-1.68-4.71-4.05z"/></svg>