<svg width="60" height="60" viewBox="0 0 60 60" fill="none" xmlns="http://www.w3.org/2000/svg">
<g clip-path="url(#clip0_1_262)">
<path d="M30 20C27.3478 20 24.8043 21.0536 22.9289 22.9289C21.0536 24.8043 20 27.3478 20 30C20 32.6522 21.0536 35.1957 22.9289 37.0711C24.8043 38.9464 27.3478 40 30 40C32.6522 40 35.1957 38.9464 37.0711 37.0711C38.9464 35.1957 40 32.6522 40 30C40 27.3478 38.9464 24.8043 37.0711 22.9289C35.1957 21.0536 32.6522 20 30 20Z" fill="url(#paint0_linear_1_262)"/>
<path fill-rule="evenodd" clip-rule="evenodd" d="M18 0C13.2261 0 8.64773 1.89642 5.27208 5.27208C1.89642 8.64773 0 13.2261 0 18L0 42C0 46.7739 1.89642 51.3523 5.27208 54.7279C8.64773 58.1036 13.2261 60 18 60H42C46.7739 60 51.3523 58.1036 54.7279 54.7279C58.1036 51.3523 60 46.7739 60 42V18C60 13.2261 58.1036 8.64773 54.7279 5.27208C51.3523 1.89642 46.7739 0 42 0L18 0ZM16 30C16 26.287 17.475 22.726 20.1005 20.1005C22.726 17.475 26.287 16 30 16C33.713 16 37.274 17.475 39.8995 20.1005C42.525 22.726 44 26.287 44 30C44 33.713 42.525 37.274 39.8995 39.8995C37.274 42.525 33.713 44 30 44C26.287 44 22.726 42.525 20.1005 39.8995C17.475 37.274 16 33.713 16 30V30ZM44 16H48V12H44V16Z" fill="url(#paint1_linear_1_262)"/>
</g>
<defs>
<linearGradient id="paint0_linear_1_262" x1="30" y1="20" x2="30" y2="40" gradientUnits="userSpaceOnUse">
<stop stop-color="#E41272"/>
<stop offset="1" stop-color="#942DD9"/>
</linearGradient>
<linearGradient id="paint1_linear_1_262" x1="30" y1="0" x2="30" y2="60" gradientUnits="userSpaceOnUse">
<stop stop-color="#E41272"/>
<stop offset="1" stop-color="#942DD9"/>
</linearGradient>
<clipPath id="clip0_1_262">
<rect width="60" height="60" fill="white"/>
</clipPath>
</defs>
</svg>
