<svg width="62" height="62" viewBox="0 0 62 62" fill="none" xmlns="http://www.w3.org/2000/svg">
<rect width="62" height="62" rx="28" fill="#0A66C2"/>
<path d="M43.9167 33.9192V43.4697H38.3806V34.5572C38.3806 32.3201 37.5798 30.7933 35.5751 30.7933C34.0458 30.7933 33.1339 31.8215 32.7335 32.8187C32.5888 33.1752 32.55 33.6712 32.55 34.1672V43.4697H27.0114C27.0114 43.4697 27.0863 28.3779 27.0114 26.815H32.55V29.1736L32.5139 29.2278H32.55V29.1762C33.2863 28.0395 34.5986 26.4223 37.541 26.4223C41.1835 26.4223 43.9167 28.8042 43.9167 33.9192ZM21.217 18.7834C19.3234 18.7834 18.0834 20.0286 18.0834 21.6613C18.0834 23.2629 19.2872 24.5417 21.1446 24.5417H21.1808C23.1131 24.5417 24.3144 23.2603 24.3144 21.6613C24.2782 20.0286 23.1131 18.7834 21.217 18.7834ZM18.4115 43.4697H23.9501V26.815H18.4115V43.4697Z" fill="#FAFBFF"/>
<path d="M31 51.6667C36.4812 51.6667 41.7378 49.4893 45.6136 45.6135C49.4893 41.7378 51.6667 36.4811 51.6667 31C51.6667 25.5189 49.4893 20.2622 45.6136 16.3865C41.7378 12.5107 36.4812 10.3333 31 10.3333C25.5189 10.3333 20.2622 12.5107 16.3865 16.3865C12.5107 20.2622 10.3334 25.5189 10.3334 31C10.3334 36.4811 12.5107 41.7378 16.3865 45.6135C20.2622 49.4893 25.5189 51.6667 31 51.6667ZM31 56.8333C16.7323 56.8333 5.16669 45.2677 5.16669 31C5.16669 16.7322 16.7323 5.16666 31 5.16666C45.2678 5.16666 56.8334 16.7322 56.8334 31C56.8334 45.2677 45.2678 56.8333 31 56.8333Z" fill="#FAFBFF"/>
</svg>
